<?xml version="1.0" encoding="UTF-8"?>
<svg version="1.1" xmlns="http://www.w3.org/2000/svg" width="24" height="24">
<path d="M0 0 C1.9375 2.375 1.9375 2.375 3 5 C2.67 5.99 2.34 6.98 2 8 C0.68 7.67 -0.64 7.34 -2 7 C-2 6.01 -2 5.02 -2 4 C-3.32 4 -4.64 4 -6 4 C-6 5.98 -6 7.96 -6 10 C-2.37 10 1.26 10 5 10 C5.09765625 17.71484375 5.09765625 17.71484375 5 20 C3.17883997 21.82116003 0.69328236 21.1323508 -1.7265625 21.13671875 C-2.47679687 21.13285156 -3.22703125 21.12898438 -4 21.125 C-5.12535156 21.13080078 -5.12535156 21.13080078 -6.2734375 21.13671875 C-11.87338947 21.12661053 -11.87338947 21.12661053 -13 20 C-13.07205511 18.31391034 -13.08386068 16.62499341 -13.0625 14.9375 C-13.05347656 14.01839844 -13.04445313 13.09929688 -13.03515625 12.15234375 C-13.02355469 11.44207031 -13.01195312 10.73179688 -13 10 C-12.34 10 -11.68 10 -11 10 C-10.9175 8.741875 -10.835 7.48375 -10.75 6.1875 C-10.37730266 3.3080301 -10.19058025 2.23293142 -8.3125 -0.0625 C-5.06923986 -1.37733519 -3.2969938 -1.12238087 0 0 Z " fill="#FF375F" transform="translate(16,2)"/>
</svg>
